<svg xmlns="http://www.w3.org/2000/svg" width="64" height="64" viewBox="0 0 64 64">
  <!-- Background gradient -->
  <defs>
    <linearGradient id="gradient" x1="0%" y1="0%" x2="100%" y2="100%">
      <stop offset="0%" style="stop-color:#6b73ff;stop-opacity:1" />
      <stop offset="100%" style="stop-color:#000dff;stop-opacity:1" />
    </linearGradient>
  </defs>
  
  <!-- Background circle -->
  <circle cx="32" cy="32" r="30" fill="url(#gradient)" />
  
  <!-- Sun rays -->
  <g fill="rgba(255, 255, 255, 0.9)">
    <!-- Center sun -->
    <circle cx="26" cy="28" r="10" />
    
    <!-- Cloud shape -->
    <path d="M48,32 C48,28.13 44.87,25 41,25 C40.14,25 39.31,25.17 38.55,25.47 C37.56,21.17 33.66,18 29,18 C23.48,18 19,22.48 19,28 C19,28.14 19.01,28.28 19.02,28.42 C15.62,29.18 13,32.29 13,36 C13,40.42 16.58,44 21,44 L47,44 C50.87,44 54,40.87 54,37 C54,33.34 51.29,30.32 48,30.03" stroke="rgba(255, 255, 255, 0.9)" stroke-width="2" fill="rgba(255, 255, 255, 0.7)" />
  </g>
  
  <!-- "BS" text for BrightSide -->
  <text x="32" y="36" font-family="Arial" font-size="16" font-weight="bold" text-anchor="middle" fill="#000dff">BS</text>
</svg>
